<svg version="1.1" id="Layer_1" xmlns="http://www.w3.org/2000/svg" xmlns:xlink="http://www.w3.org/1999/xlink" x="0px" y="0px"
	 viewBox="0 0 498.5 36" enable-background="new 0 0 498.5 36" xml:space="preserve">
<path fill="#EDEDED" d="M14.2,0.2c0,0.4,0.3,0.4,0.8,0.4c0,0-0.2,0.2-0.2,0.3c0,0.1,0.4,0.2,0.4,0.4c0,0.1-0.2,0.1-0.2,0.1
	c0.4,0,0.4,0.4,0.4,0.4c0.7,0,0.2,0.8,0.8,1.2c0,0.2,0.5,2.2,1.3,2c0,1.6,0.4,1,0.4,1.6c0.3,0,1.1,3.4,1.8,3.4c-0.2,0,0.9-1.5,1-1
	c0.4-0.8,0.4-1.2,0.8-1.6c0,0,0.4-0.4,0.4-0.8c0.2-0.1,0.8,0.1,0.8-1.2c0.5,0,0-0.4,0.5-0.8c0.5,0.3,0-0.9,0.8-0.8
	c0.4-0.8,0.4-1.1,0.7-1.5c0-0.4,1.3-1.1,0.8-1.2c0.5-0.4,0.8-0.4,1.6-0.4c1.4,0,2,0.4,2,1.6C29,2,29.8,4.8,30.4,4.8
	c0,0-0.1,1.6,0.9,1.4c0.3,1.1,0.9,3.1,2,3.1c0-0.4,0-0.4,0-0.4c0.6-0.8,1-1.9,1-1.7c0-0.1-0.2-0.3-0.2-0.3c0.4,0,0.7-0.6,0.7-1.2
	c1.1-0.9,0.8-1.1,0.8-1.6c0.3,0,1.2-0.5,1.2-1.5c0,0.5,0.2-0.8,0.8-0.8c0-0.2,0.3-1.2,0.8-1.2c3.8,0,8.6-0.1,12-0.1
	C51,0.5,51.6,0.6,52,1c0,0.6-0.5,0.9-0.5,1.6c0,0-0.4,0-0.4,0.4c0.2,0.1-0.5,0.4-0.5,1.2c0.2-0.1-1.3,1.4-1.1,1.6c0,0.4,0,0.4,0,0.4
	c0,0.4-0.8,2-1.2,1.9c0,0.6-1.6,1.7-1.6,3.2c-0.5,1-0.5,0.9-0.8,1.3c0.4,0.2-0.4-0.1-0.4,1.1c-0.9-0.2-0.7,1.1-1.2,1.6
	c0,0.5-0.8,0.7-0.8,1.5c0.3,0.1-0.4,0.3-1.6,2.8c-0.5,0.5-1.2,1.3-1.2,1.6c-0.2,0-0.7,2.8-1.9,2.8c0,0.3,0.2,0.4,0.2,0.5
	c0,0.4-1.4,1.3-1.4,3.2c-0.2,0-2.4,1.9-2,3.2c-0.6,0-0.3,1.2-1.2,1.2c0,0.5-0.4,0.4-0.4,1.6c-0.4,0.3-1.1,1.7-1.7,1.7
	c-0.8,0-1.1-0.5-1.1-1.3c-0.9,0-0.2-0.9-0.6-0.9c-0.1,0-0.3,0.2-0.3,0.2c0-0.9,0.1-0.8-0.4-0.8c0-0.8-0.7-1.3-0.7-2.4
	c-0.2,0-0.2-0.1-0.2-0.1c0-0.2,0.2-0.4,0.2-0.4c-0.7,0-0.5,0.2-0.5-0.4c-0.1,0-0.2,0-0.2,0c0-0.1,0.2-0.1,0.2-0.4
	c-0.5,0-1.4-1.9-2-3.2c0-1-0.8-2.1-1.6-3.1c-1,1.9-4.2,7.2-4.8,7.1c0,0.9-0.2,0.3-0.4,0.5c0,0,0.2,0.2,0.2,0.3
	c0,0.6-0.3,0.6-0.6,0.6c-0.4,0.8-0.8,2-1.6,2.8c0-0.2-0.6,2.1-1.5,2.1c-1.3,0-1.5-1.3-1.9-2.6h0.2c-0.5-0.4-0.7-1.1-0.8-1.5
	c-0.4-0.5-0.4-0.5-0.4-0.5c-0.5-0.4-1.2-3.3-1.6-3.1c-1.1-1-0.3-1.9-1.6-3.3c0,0,0.2,0,0.2-0.1c0-0.2,0.1,0.1-0.6-0.7
	c0,0,0.2-0.2,0.2-0.3c0,0.2-1-1-1-2c-0.3,0.2-0.4-0.4-0.4-1.3c0.1-0.4-1.2-1.3-1.2-1.5c0-1.2-0.8-2.2-0.8-2.4c0.2-0.1-1.1-1.1-0.8-2
	c-0.5,0.6-0.1-1.2-0.8-1.2c0-0.4,0-0.4,0-0.4s-0.9-2.2-1.2-2C4.2,10.9,3.7,9,3,8.5C3,7,2.2,6.8,2.2,5.8C1.4,5.8,1.8,5.4,1.4,5
	C1.4,3.7,0,1.4,0,0.2h1.8C5.8,0.2,10.2,0.2,14.2,0.2 M14.5,29.1c-0.1,0.2-0.2,0.3-0.2,0.4c0,0.1,0.2,0.1,0.2,0.1V29.1z M21.1,18.9
	h-0.2c0,1.7,0.1,1.1,0.5,1.5c0,0-0.2,0.4-0.2,0.5c0,0,0,0.1,0.1,0.1c0,0,0.3-0.1,0.3-0.2c0-0.2-0.2-0.5-0.2-0.7c-0.1-2,0.3-2-0.5-2
	c0,0.4,0,0.4,0,0.8C21,18.9,21.1,18.9,21.1,18.9z M21.5,23.1c0.1,0,0.2-0.1,0.2-0.2c-0.3-0.1-0.4-0.3-0.4-0.5c0-0.4,0.4-0.9,0.4-1.2
	c-0.8,0-0.4,0.8-0.8,1.6C20.9,22.9,21.2,23.1,21.5,23.1z M21.6,25.3c0-0.5,0.6-0.6,0.6-1.3c-0.8,0-0.5-0.5-0.8-0.4
	c0,0,0.1-0.2,0.1-0.3c0-0.1-0.1-0.2-0.2-0.2c-0.1,0-0.2,0-0.3,0.1c0.5,0.8,0,2.1,0.8,2.5C21.6,25.5,21.6,25.4,21.6,25.3z M21.5,26.6
	c0-0.1-0.1-0.1-0.2-0.1c0,0-0.2,0.2-0.2,0.3c0,0.1,0.1,0.1,0.2,0.1C21.3,26.8,21.5,26.7,21.5,26.6z M22.1,10.9
	c-0.5,0-0.5,0.4-0.5,0.8C22.1,11.8,22.1,11.8,22.1,10.9z M34.9,19.8c0.2,0,0.2-0.1,0.2-0.2c0-0.2-0.1-0.3-0.3-0.3c0,0,0,0.2-0.1,0.2
	c-0.1,0-0.2-0.1-0.3-0.2C34.5,19.8,34.7,19.8,34.9,19.8z"/>
<path fill="#EDEDED" d="M79.5,35.9c-1.1,0-1.3-1.6-1.3-1.6c-0.9,0.1-0.8-1.3-1.3-1.7c-1.3-0.5-2.6-0.5-3.8-0.5
	c-0.9,0-0.6,0.5-1.6,0.5v-0.5c0,0,0,0.5-0.4,0.5c-0.9,0-1.7-0.5-2.9-0.5l-0.5,0.5c-0.8,0-1.3-0.5-1.7-0.5c-0.4,0-0.4,0.5-0.8,0.5
	c-1,0-3.4-0.4-3.4,0.8c-0.1-0.2-0.1,1.2-0.8,1.2c-0.3,0.1-0.5,1.3-0.8,1.3c-4.7,0-9.7,0-14.8,0c0-0.6,0.9-2.2,1.3-2.1
	c-0.4-0.1,0.7-1.5,1.2-1.7c0-0.8,0.5-0.8,0.9-1.7c-0.5-0.2,0.8-0.8,0.8-1.3c-0.3-0.7,1-0.6,0.9-0.8c0.6-1.7,0.8-0.3,0.8-1.6
	c0.8,0,0.5-1.4,1.3-1.3c-0.4-1,0.8-0.9,0.8-1.7c0.2,0,1.2-0.8,1.2-1.7c0.5-0.7,0.6-0.4,0.6-0.7c0-0.2-0.2-0.2-0.2-0.2
	c0.7,0,0.9-1.2,1.3-1.7c0.8-0.9,0.7-1.1,1.2-1.7c0.3-0.1,1.3-1.1,1.3-1.6c-0.1-0.2,0.7-1.1,0.8-0.9c0-1.4,1.7-1.3,1.7-3
	c0.4,0.3,0.6-0.9,1.2-1.7c1,0,0.5-1.1,1.3-1.6c0.7,0.1,0.2-0.9,0.8-0.9c0-1,0.5-0.7,0.5-1.3c0.4-0.4,1.7-1.7,1.7-2.5
	c0-0.7,0.8-0.2,0.8-1.3c0.6,0.3,0.5-0.5,1.7-1.7c0-1,1.1-1.3,1.3-1.3c1.6,0,1.5,0.3,2.9,3c0,0,0.2-0.2,0.3-0.2
	c0.1,0,0.1,0.3,0.1,0.7c0.1,0.1,0.4,0.8,0.9,0.8c0,0-0.2,0.2-0.2,0.3c0,0.1,0.3,0.1,0.2,0.5c0.6,0,0.7,1.1,1.2,1.7
	c0,0.1,1,1.9,1.3,1.7C77.3,9.7,78,9,78,10c0,0.4,0.6,0.5,0.6,1.1c-0.4-0.1,0.9,0.5,0.9,1.7c0,0,0.4,0,0.4,0.5c0.8,1.5,0.9,1,0.9,1.6
	c0.6,0,0.3,0.3,1.3,2.1c1-0.2-0.1,0.9,0.8,0.8c0.2,0.8,0.9,1.8,1.7,2.5c0,0.7,0.3,1.1,0.9,1.7c-0.2,0.6,1.2,2,1.2,2.6
	c0.7,0.8,0.6,0.8,0.9,0.9c0,0.4,0,0.8,0,0.8c0.9,1,0.8,0.7,0.8,1.2c0.4-0.6,0.2,1.2,1.2,1.2c0,0.3-0.2,0.4-0.2,0.5
	c0,0.6,1.8,1.8,1.8,3.4c0.7,0.6,0.9,1,0.9,1.2c0,0.4,0.9,0.7,0.9,1.7c0,0.1-0.1,0.3-0.1,0.4C88.3,35.9,83.6,35.9,79.5,35.9
	 M54.9,28.4c0.3,0,0.4-0.2,0.4-0.4c0-0.1-0.1-0.2-0.2-0.2c-0.3,0,0.2,0.1-0.6,0.1C54.6,28.3,54.5,28.4,54.9,28.4z M55,30.5
	c0-0.2,0.1-0.7,0.1-1.1c0-0.4-0.1-0.7-0.5-0.7c0.4,0.5,0,0.9,0.4,0.9C55,30.1,55,30.5,55,30.5z M54.8,31.4c0.2,0,0.3-0.2,0.3-0.3
	c0-0.2-0.2-0.3-0.6-0.3C54.6,31.3,54.7,31.4,54.8,31.4z M55,26.8c0.1,0,0.3-0.3,0.3-0.5c0-0.1,0-0.1-0.1-0.1
	C55.1,26.2,54.9,26.3,55,26.8C55,26.8,55,26.8,55,26.8z M57.1,25.5c-0.1-0.1-0.2-0.1-0.2-0.1c-0.3,0-0.4,0.4-0.4,0.7
	c0,0.2,0.1,0.3,0.2,0.3C57.1,25.9,57.1,25.9,57.1,25.5z M57.9,33.4c0,0.4,0,1,0.3,1c0.1,0,0.1-0.1,0.2-0.1
	C58.4,33.8,58.4,33.8,57.9,33.4z M65.2,23.4c0-0.1-0.1-0.2-0.2-0.2c-0.1,0-0.2,0.1-0.4,0.1c0.5,0,0,0.5,0.5,0.5
	C65.1,23.8,65.2,23.6,65.2,23.4z M65.5,29.2c-0.4,0-0.4,0-0.9-0.5c0.5,0.9,0,2.1,0.5,2.6C65.5,30.1,65.5,30.1,65.5,29.2z M65.6,26
	c0-0.3-0.1-0.5-0.5-0.5c0.2,0.2,0.2,0.4,0.2,0.7c0,0.4-0.1,0.8-0.1,0.8c-0.1,0-0.1-0.1-0.1-0.2C65.3,26.7,65.6,26.3,65.6,26z
	 M65.5,28.4c0-0.5,0-0.5,0-0.5c-0.2,0.2-0.4-0.5-0.4,0.5H65.5z M67,25.6c0-0.1,0-0.1-0.2-0.1c0,0.8,0,1.3,0,1.3s0-0.2,0-0.5
	C66.8,26,67,25.7,67,25.6z M69.3,22.5c-0.3,0-0.8,0.6-0.8,0.8c1.6,0,2.1,0,3.7,0c-0.8-0.8-0.5-2.1-2.1-3c0.1,0.1,0.2,0.2,0.2,0.3
	c0,0.4-0.5,0.7-0.5,1C69.3,21.7,69.3,22,69.3,22.5z"/>
<path fill="#EDEDED" d="M101.7,0.5c-0.2,0.9,0.7,0.1,0.8,2c0.8,0.4,1.2,1.7,1.6,2.1c0,0.4,0.2,0.5,1.2,1.6c-0.4,0.2,0.4,0.8,0.4,1.2
	c-0.1,0.4,0.4,0,0.4,1.2c0.7,0,0.6-2,1.6-2c0-0.4,0-0.4,0.4-0.9c-0.1-0.2,1-1.4,0.9-1.5c0.2-0.2,1-1.7,1.5-1.7c0-1.4,0.2-1,0.4-1.1
	c0.5-0.5,0.5-0.9,0.5-1.2c0.4,0.1,0.8,0.2,1.2,0.2c0.8,0,1.5-0.2,2-0.2c0.1-0.3,1,0.3,1.4,0.3c0.3,0,0.6-0.1,1-0.3c2,0,4.4,0,6.5,0
	c0.4,0,0.8,0.4,1.1,0.4c0.6,0,1.3-0.2,1.8-0.2c0.3,0,0.5,0.1,0.7,0.2c0,2.4-2.2,3.2-3.2,6.1c-0.7,0-0.9,0.5-0.9,1.2
	c-0.4-0.2-0.9,1.6-1.5,2c0,0.8-1.2,1.6-1.2,2c-0.4,1-0.2,0.6-1.6,2c0,1.5-0.2,0.6-0.5,0.8c0,0.4,0,0.4,0,0.4c0,0.1-1,0.6-0.8,1.7
	c-0.1,0-1.4,0.7-1.2,1.6c-0.9,0.6-0.9,1.1-0.9,1.1c-0.4,0.5-0.3-0.1-0.4,0.8c-0.9,0-0.6,0.7-1.2,1.3c0,0.9-1.1,0.1-1.1,3.8
	c0,2.6,0.3,5.1,0.3,7.1c0,1.2-0.2,2.3-0.9,3.3c-2.8,0-5.6,0-8.4,0c-0.8,0-1.8,0.4-2.6,0.4c-1.2,0-1.2-0.8-1.2-1.5
	c0-3.1,0.2-8.6,0.2-12.6c-0.4-0.4-0.8-0.8-1.2-1.2c0-1.2-0.8-2-1.2-2.4c0-0.8-1.2-1.3-1.2-1.3c0.4-0.2-0.8-1.9-0.8-2.4
	c-0.2,0-0.8-0.6-0.8-1.2c-0.4,0-0.4-0.5-0.4-0.5c-0.3,0-1.6-1.3-1.6-2.4c-0.3-0.4-0.8-0.7-0.8-1.2c-0.3,0.3-1.1-1.9-2-2.8
	c-0.6-1.8,0.8,1.9-3.3-4.9c-0.4,0-0.8-0.4-0.8-1.2c0-0.4,0.4-0.4,0.8-0.4c4.9,0,9.7,0,14.5,0C101.3,0.2,101.7,0.2,101.7,0.5
	 M94.5,2.9c0,0-0.5,0-0.5-0.4c-0.4,0-0.8,0.4-1.1,0.8C93.2,2.9,94.5,3.3,94.5,2.9z M98.8,17.8c0-0.4-0.4-0.4-0.8-0.4v0.4
	C98.5,17.8,98.5,17.8,98.8,17.8z M113.4,17.8c-0.8,0-0.2-0.2-0.4-0.4c-0.4,0-0.5,0.1-0.5,0.3c0,1.1,0.5,0.7,0.5,1.4h-0.2
	c0,0,0.1,0,0.2,0C113.4,18.7,112.9,18.3,113.4,17.8z"/>
<path fill="#EDEDED" d="M163.1,2.6c0.4-0.1,0.6,0,0.5,0.4c0,0,0.2-0.2,0.3-0.2c0.3,0,0.1,1,1.7,1c0,1.2,0.8,2,1.6,3.3
	c-0.2,0.3,0.2,0.6,0.4,0.8c-0.1-0.1,0.8,0.9,0.8,2.8c0.4,0.1,0.8,2.5,0.8,4c0,1-0.2,2.1-0.2,2.9c0,1.1-0.6,2-0.6,2.9
	c0.1,0.5-0.8,1.2-0.8,2c-1.6,1.7,0.1,0.7-1.6,2.5c-0.4,0-2.1,2-2.4,2c-0.6,0.1-1.6,1.2-2.9,1.2c0,0.5-0.4,0.8-0.8,0.8
	c-2.9,0-7.2-0.2-11.4,0.5c-0.5,0.8,0,1.6-0.5,2.4c0,0.8,0.2,1.9,0.2,2.9c0,1.2-1.3,1-2.1,1c-1.4,0-2.7-0.2-4.5-0.2l-0.4,0.4
	c-0.5,0-0.5-0.4-0.8-0.4c-0.7,0.2-1.6,0.3-2.5,0.3c-1.5,0-2.8,0.3-2.8-1.9l0.4-0.5c-0.4-0.4-0.4-0.4-0.4-0.8c0-1.7,0.4-2.5,0.4-4.5
	c-0.4,0-0.4-0.4-0.4-0.4c0-0.8,0.4-1.2,0.4-2c0,0-0.4-0.4-0.4-0.8c-0.4-0.2,0.4-0.8,0.4-1.2c0-15.9-0.1-16.7-0.1-20.3
	c0-1.4,0.2-2.7,0.9-3.3c0.5,0,0.5,0.4,0.8,0.4l0.5-0.4c2,0,4,0.4,6.5,0.4c0.8,0,1.6-0.4,2.5-0.4l0.4,0.4c0.2-0.3-0.5-0.4,1.6-0.4
	v0.4c2.4,0,5-0.2,7.2-0.2c1.1,0,2.1,0,2.9,0.2c1.9-0.3,0.9,0.6,1.7,0.4c-0.4-0.1,1.1,0.8,2,0.8C162.7,2.1,162.7,2.6,163.1,2.6
	 M138.1,5.2c0,0.4,0.3,0.7,0.5,0.7c0.1,0,0.1-0.1,0.1-0.2l-0.5-0.4c0.5-0.5,0.8-0.8,0.8-1.6c-0.8,0,0,1.2-0.8,1.2
	C138.2,5.1,138.1,5.1,138.1,5.2z M142.3,19.7c0.7,0,0.5,0.9,1,0.9c0.1,0,0.2,0,0.3-0.1c0-0.8-0.4-0.5-0.4-1.3c0.2,0,0.2-0.1,0.2-0.1
	c0-0.3-0.2-0.4-0.2-1.1c0,0,0-0.2-0.1-0.2c0,0-0.4,0.2-0.4,0.2c0,0.1,0.2,0.1,0.2,0.4c0,0.1,0,0.3-0.1,0.4
	C142.8,19.2,142.3,19.2,142.3,19.7z M143.6,14.7c-0.8,0-0.4,0.5-0.8,0.5C143.2,15.2,143.6,15.2,143.6,14.7z M143.6,17.2
	c-0.4,0-0.4,0-0.8,0.4C143.2,17.6,143.6,17.2,143.6,17.2z M142.9,16.4c0,0.3,0.1,0.6,0.3,0.8c0-0.3,0.9-0.8,0.8-1.7
	c0,0.2-0.1,0.2-0.1,0.2c-0.2,0-0.5-0.2-0.7-0.2C143,15.8,142.9,16.1,142.9,16.4z M144.4,13.5c0-0.5-0.5-0.6-0.7-0.6
	c-0.1,0-0.1,0.1-0.1,0.2c0.1,0,0.1,0.1,0.1,0.2c0,0.2-0.1,0.5-0.1,0.7c0,0.2,0.1,0.4,0.4,0.4C144.4,14.4,144.4,13.9,144.4,13.5z
	 M143.8,23c0.3,0,0.4-0.3,0.4-0.6c0-0.2,0-0.3-0.2-0.3c0.1,0-0.5,0.5-0.5,0.8C143.7,23,143.7,23,143.8,23z M144.3,23.8
	c0,0.2,0.1,0.3,0.5,0.3c0.1-0.1,0.1-0.2,0.1-0.3c0-0.4-0.4-1-0.7-1c-0.1,0-0.2,0-0.2,0c0.4,0,0.4,0,0.4,0
	C144.4,23.3,144.3,23.6,144.3,23.8z M144.6,26c0.2,0,0.4,0,0.6,0.2c0-0.6-0.5-1-0.7-1c-0.1,0-0.2,0.1-0.2,0.2c0.1,0,0.1,0.1,0.1,0.1
	c0,0.1-0.5,0.5-0.5,0.8C144.2,26.2,144.3,26,144.6,26z M145.2,27c-0.8,0-0.4-0.4-0.8-0.4c0,0-0.2,0-0.2,0.1c0,0.1,0,0.2,0.2,0.3
	c-0.2,0.3-0.3,0.4-0.3,0.4v-0.1c0-0.1,0.1-0.1,0.1-0.1c0.7,0-0.3,1.8,0.6,1.4c-0.3,0.1-0.4,0.3-0.4,0.4c0,0.3,0.4,0.5,0.4,0.8
	c-0.2,0.3-0.2,0.5-0.2,0.6c0,0.3,0.2,0.4,0.2,0.7c-0.2,0-0.2,0.2-0.2,0.3c0,1,0.4,1,0.4,1c-0.3,0,0.8-1.4,0.8-1.7s-0.1-0.6-0.1-0.9
	c-0.2,0-0.2,0-0.2,0c0-0.1,0.2-0.1,0.2-0.4c0,0-0.4-0.2-0.4-0.4c0-0.2,0.5-0.1,0.5-0.2c0-0.2-0.2-0.4-0.2-0.7
	c-0.3,0-0.6,0.2-0.7,0.2c-0.1,0-0.1-0.1-0.1-0.2c0-0.4,0.4,0,0.8-0.4C145.2,27.4,145.2,27,145.2,27s0.2-0.2,0.2-0.3
	c0-0.1,0-0.1-0.2-0.1V27z M145.2,6c0-0.2-0.1-0.3-0.4-0.3c0,0.3-0.2,0.8-0.2,1.1c0,0.1,0.1,0.2,0.2,0.2C144.8,6.7,145.2,6.3,145.2,6
	z M144.8,32.7c0,0.2-0.1,0.4-0.1,0.6c0,0.2,0.1,0.3,0.5,0.3C145.2,33.5,145.2,33.1,144.8,32.7z M148.5,4.6c0.4,0,0.4,0,0.4,0
	c-0.5,0-0.8,0.5-0.8,0.9c0,0.2,0.1,0.4,0.4,0.4c0.1,0,0.2-0.1,0.4-0.1C148.5,5.4,148.8,5.4,148.5,4.6z M153.3,11.1
	c-1.6,0-3.2,0-4.9,0c-0.1,0.4-0.2,0.8-0.2,1.1c0,1,0.3,1.9,0.3,2.9c0,0.3-0.1,0.6-0.1,0.9c2.5,0,4.4,0,6.5-0.5
	c0.5-0.4,0.5-1.6,0.5-2.8c-0.5-0.4-0.8-0.8-0.8-0.8C154.1,11.5,153.9,11.8,153.3,11.1z M149,3.5c0.1,0,0.2-0.2,0.2-0.3
	c0-0.2-0.1-0.3-0.2-0.3c-0.1,0-0.2-0.1-0.2,0.5C148.9,3.4,148.9,3.5,149,3.5z"/>
<path fill="#EDEDED" d="M202.5,35.9c-1.1,0-1.3-1.6-1.3-1.6c-0.9,0.1-0.8-1.3-1.3-1.7c-1.3-0.5-2.6-0.5-3.8-0.5
	c-0.9,0-0.6,0.5-1.6,0.5v-0.5c0,0,0,0.5-0.4,0.5c-0.9,0-1.7-0.5-2.9-0.5l-0.5,0.5c-0.8,0-1.3-0.5-1.7-0.5s-0.4,0.5-0.8,0.5
	c-1,0-3.4-0.4-3.4,0.8c-0.1-0.2-0.1,1.2-0.8,1.2c-0.3,0.1-0.5,1.3-0.8,1.3c-4.7,0-9.7,0-14.8,0c0-0.6,0.9-2.2,1.3-2.1
	c-0.4-0.1,0.7-1.5,1.2-1.7c0-0.8,0.5-0.8,0.9-1.7c-0.5-0.2,0.8-0.8,0.8-1.3c-0.3-0.7,1-0.6,0.9-0.8c0.6-1.7,0.8-0.3,0.8-1.6
	c0.8,0,0.5-1.4,1.3-1.3c-0.4-1,0.8-0.9,0.8-1.7c0.2,0,1.2-0.8,1.2-1.7c0.5-0.7,0.6-0.4,0.6-0.7c0-0.2-0.2-0.2-0.2-0.2
	c0.7,0,0.9-1.2,1.3-1.7c0.8-0.9,0.7-1.1,1.2-1.7c0.3-0.1,1.3-1.1,1.3-1.6c-0.1-0.2,0.7-1.1,0.8-0.9c0-1.4,1.7-1.3,1.7-3
	c0.4,0.3,0.6-0.9,1.2-1.7c1,0,0.5-1.1,1.3-1.6c0.7,0.1,0.2-0.9,0.8-0.9c0-1,0.5-0.7,0.5-1.3c0.4-0.4,1.7-1.7,1.7-2.5
	c0-0.7,0.8-0.2,0.8-1.3c0.6,0.3,0.5-0.5,1.7-1.7c0-1,1.1-1.3,1.3-1.3c1.6,0,1.5,0.3,2.9,3c0,0,0.2-0.2,0.3-0.2
	c0.1,0,0.1,0.3,0.1,0.7c0.1,0.1,0.4,0.8,0.9,0.8c0,0-0.2,0.2-0.2,0.3c0,0.1,0.3,0.1,0.2,0.5c0.6,0,0.7,1.1,1.2,1.7
	c0,0.1,1,1.9,1.3,1.7c0,1.1,0.7,0.5,0.7,1.4c0,0.4,0.6,0.5,0.6,1.1c-0.4-0.1,0.9,0.5,0.9,1.7c0,0,0.4,0,0.4,0.5
	c0.8,1.5,0.9,1,0.9,1.6c0.6,0,0.3,0.3,1.3,2.1c1-0.2-0.1,0.9,0.8,0.8c0.2,0.8,0.9,1.8,1.7,2.5c0,0.7,0.3,1.1,0.9,1.7
	c-0.2,0.6,1.2,2,1.2,2.6c0.7,0.8,0.6,0.8,0.9,0.9c0,0.4,0,0.8,0,0.8c0.9,1,0.8,0.7,0.8,1.2c0.4-0.6,0.2,1.2,1.2,1.2
	c0,0.3-0.2,0.4-0.2,0.5c0,0.6,1.8,1.8,1.8,3.4c0.7,0.6,0.9,1,0.9,1.2c0,0.4,0.9,0.7,0.9,1.7c0,0.1-0.1,0.3-0.1,0.4
	C211.4,35.9,206.7,35.9,202.5,35.9 M177.9,28.4c0.3,0,0.4-0.2,0.4-0.4c0-0.1-0.1-0.2-0.2-0.2c-0.3,0,0.2,0.1-0.6,0.1
	C177.6,28.3,177.6,28.4,177.9,28.4z M178,30.5c0-0.2,0.1-0.7,0.1-1.1c0-0.4-0.1-0.7-0.5-0.7c0.4,0.5,0,0.9,0.4,0.9
	C178,30.1,178,30.5,178,30.5z M177.9,31.4c0.2,0,0.3-0.2,0.3-0.3c0-0.2-0.2-0.3-0.6-0.3C177.6,31.3,177.8,31.4,177.9,31.4z
	 M178.1,26.8c0.1,0,0.3-0.3,0.3-0.5c0-0.1,0-0.1-0.1-0.1C178.1,26.2,177.9,26.3,178.1,26.8C178,26.8,178,26.8,178.1,26.8z
	 M180.2,25.5c-0.1-0.1-0.2-0.1-0.2-0.1c-0.3,0-0.4,0.4-0.4,0.7c0,0.2,0,0.3,0.2,0.3C180.2,25.9,180.2,25.9,180.2,25.5z M181,33.4
	c0,0.4,0,1,0.3,1c0.1,0,0.1-0.1,0.2-0.1C181.5,33.8,181.5,33.8,181,33.4z M188.3,23.4c0-0.1-0.1-0.2-0.2-0.2c-0.1,0-0.2,0.1-0.4,0.1
	c0.5,0,0,0.5,0.5,0.5C188.2,23.8,188.3,23.6,188.3,23.4z M188.6,29.2c-0.4,0-0.4,0-0.9-0.5c0.5,0.9,0,2.1,0.5,2.6
	C188.6,30.1,188.6,30.1,188.6,29.2z M188.7,26c0-0.3-0.1-0.5-0.5-0.5c0.2,0.2,0.2,0.4,0.2,0.7c0,0.4-0.1,0.8-0.1,0.8
	c-0.1,0-0.1-0.1-0.1-0.2C188.4,26.7,188.7,26.3,188.7,26z M188.6,28.4c0-0.5,0-0.5,0-0.5c-0.2,0.2-0.4-0.5-0.4,0.5H188.6z M190,25.6
	c0-0.1,0-0.1-0.2-0.1c0,0.8,0,1.3,0,1.3s0-0.2,0-0.5C189.9,26,190,25.7,190,25.6z M192.4,22.5c-0.3,0-0.8,0.6-0.8,0.8
	c1.6,0,2.1,0,3.7,0c-0.8-0.8-0.5-2.1-2.1-3c0.1,0.1,0.2,0.2,0.2,0.3c0,0.4-0.5,0.7-0.5,1C192.4,21.7,192.4,22,192.4,22.5z"/>
<path fill="#EDEDED" d="M232.5,8.3c0-0.7,0.7-1.5,1.2-2.1c0,0-0.2-0.2-0.2-0.4c0-0.1-0.1-0.1,0.7-0.1c0-0.3-0.2-1.4,0.4-1.2
	c0.1-0.1,0.9-1.3,0.9-1.6c0.4,0,0.8-1.2,1.2-1.7c0-0.8,2-0.6,2.9-0.6c3.3,0,6-0.4,9.7-0.4c0.9,0,3.1-0.1,3.6,0.5
	c0,1.1-1.2,2.2-1.2,2.9c0,0.7-1.3,0.8-1.3,2c-0.5,0.2-1.4,1.7-1.4,1.8c0,0.2,0.2,0.5,0.2,0.7c-1,0-1,0.9-1.7,1.6
	c0,1-0.8,0.8-0.8,1.2c0,0.6-0.8,0.4-0.8,2.1c-0.8,0-0.6,0.8-1.2,0.8c0,1.2,0,1-0.3,1c-0.9,0-0.2,1.1-1,1c0,0.3-0.7,2.4-1.2,2.1
	c0-0.1-0.5,1.8-0.9,1.6c-0.6,0.6-0.8,1.5-0.8,1.6c0,0.4-0.4,0-0.4,0.4c0.4,0.2-1,1.2-0.8,1.7c-1.7,1.3-1.9,2.9-2.5,4.1
	c-0.5-0.5,0.2,0.9-1.2,0.9c0,0.3,0.2,0.3,0.2,0.4c0,0-0.1,0-0.2,0c0,0.2,0,0.2,0,0.2v-0.2c-0.9,1.3-1.7,2.6-2.1,3.8
	c-0.4,0-0.4-0.1-0.4,0.8c-1.3,0-0.9,1.3-1.3,1.3c-0.5,1.1,0.2,1.2-2.9,1.2c-0.4-0.5-0.4-0.8-0.4-1.7c-0.4,0-0.8-0.5-0.8-1.2
	c0-0.4-0.9-0.4-0.9-0.8c0.1-0.3,0-0.5-0.4-0.4c-0.5-1.1-0.3-0.5-2.9-5.8c0-1.1-0.8-0.9-0.8-1.7c-0.5,0-0.9-1.7-1.2-2
	c0-0.8-0.9-0.1-0.9-1.2c0.4-0.4-0.8-0.8-0.8-1.7c0.2-0.3-0.5-0.3-0.5-0.8c-0.1,0-0.2,0-0.2,0h0.2c0.2,0.2-1.8-2.3-1.2-2.6
	c-0.8-0.9-0.8-0.7-0.8-1.2c-0.7,0-0.5-0.9-0.8-1.2c-0.1,0.4-0.6-1.3-1.3-1.3c0-1.2,0.6,0.4-1.2-3.3c-0.1,0-0.6,0-0.4-0.8
	c-1.4-1.4,1.3,2-2.9-4.6c0.4-1.3-1.2-0.2-1.2-2.9c0.5-0.2,3.5-0.5,6.6-0.5c2.7,0,5.7,0.2,8.2,0.2c1.5,0,0.7-0.4,1.7-0.4
	c0,0.6,0.5,0.2,0.5,1.2c0.1-0.2,1,0.4,0.8,1.2c0.1-0.1-0.1,0.9,0.9,0.8c0,0-0.2,0.2-0.2,0.3c0-0.3,0.2,0.5,1,1.4
	c0,0.6,1.6,3.7,2.5,4.6C231.7,9.1,232.5,8.7,232.5,8.3 M213.1,5c-0.1,0.1-0.2,0.2-0.2,0.3c0,0.2,0.2,0.3,0.4,0.3
	c0.1,0,0.2-0.1,0.2-0.2C213.1,5.4,213.1,5,213.1,5z M214.3,4.1c-0.4,0-0.8,0-0.8,0.4c0.2,0.1,0.3,0.2,0.4,0.2c0.4,0,0.5-0.5,0.9-0.5
	c0-0.3-0.2-0.8-0.4-0.8c-0.1,0-0.1,0.1-0.1,0.3c0.1,0,0.2,0,0.2,0h-0.6C213.9,4.1,214.3,4.1,214.3,4.1z M216.1,8.5
	c0-0.1,0-0.1-0.1-0.2l-0.5,0.4C215.5,8.7,216.1,8.7,216.1,8.5z M216,5.7c-0.1,0.1-0.2,0.2-0.2,0.2c0,0.1,0.1,0.2,0.2,0.2
	c0.2,0,0.4-0.1,0.4-0.4C216.4,5.7,216.4,5.7,216,5.7z M218,6.6c0-0.5-0.4-0.5-0.8-0.5c0,0,0,0,0,0.5C217.7,6.6,217.7,6.6,218,6.6z
	 M217.4,7.9c0.2,0,0.3-0.2,0.3-0.3c0-0.2-0.1-0.4-0.2-0.4c-0.1,0-0.2,0.1-0.3,0.2c0.2,0,0.2,0,0.2,0c0,0.1-0.2,0.2-0.2,0.5
	C217.3,7.9,217.3,7.9,217.4,7.9z M218,9.1c-0.5,0-0.7,0.3-0.7,0.5c0,0.2,0.1,0.3,0.3,0.3C217.7,9.9,217.7,9.6,218,9.1z M217.9,4.7
	c0-0.2,0.2-0.3,0.2-0.5c-0.4,0-0.4,0-0.4-0.5c0,0.5-0.2,0.8-0.2,1S217.6,5,218,5C217.9,4.8,217.9,4.7,217.9,4.7z M218.6,15.4
	c0.3,0,0.3-0.6,0.3-0.6c0,0.4-0.6,0.2-0.6,0.3c0,0.1,0,0.1,0.1,0.2C218.5,15.4,218.6,15.4,218.6,15.4z M219.7,9.1
	c-0.9,0-1.3,0.4-1.3,0.8C218.7,9.9,219.7,9.5,219.7,9.1z M219,14.2c0.2,0,0.6-0.3,0.6-0.4c0-0.1-0.1-0.2-0.3-0.2
	c0,0-0.5,0.3-0.5,0.4c0,0.1,0.1,0.1,0.2,0.1C218.9,14.2,218.9,14.2,219,14.2z M219.7,8.7c0-0.2-0.2-0.3-0.4-0.3
	c-0.1,0-0.2,0.1-0.2,0.2c0,0.1,0.1,0.1,0.1,0.2H219.7z M220.3,13.9c0-0.1-0.2-0.2-0.2-0.4c0,0,0,0.1,0,0.2c-0.2-0.1-0.2-0.2-0.2-0.2
	l0.2,0.2l-0.4,0.4C220,14.1,220.3,14.1,220.3,13.9z M220.9,5.4c0,0-0.6,0.3-0.6,0.4c0,0,0.1,0,0.1,0C220.5,5.7,220.9,5.7,220.9,5.4z
	 M221.4,8.3c0,0,0,0.4-0.5,0.4c0.6,0,0.7,0.2,1,0.2c0.1,0,0.8-0.1,0.8-0.4c0,0-0.1,0-0.1,0c-0.2,0-0.6,0.2-0.9,0.2
	C221.7,8.3,221.7,8.3,221.4,8.3z M222.2,12.4c-0.1,0.1-0.1,0.2-0.1,0.2c0,0.3,0.4,0.5,0.7,0.5c0.2,0,0.3-0.1,0.3-0.2
	C222.6,12.8,222.6,12.4,222.2,12.4z M223.7,10.1c0.2,0,0.3,0.1,0.5,0.3c0-0.3-0.6-0.6-1-0.6c-0.2,0-0.3,0.1-0.3,0.2
	c0.2,0.1,0.3,0.2,0.3,0.2c0,0.1-0.7,0.1-0.7,0.5c0,0.1,0.1,0.2,0.1,0.3C222.9,10.8,223.2,10.1,223.7,10.1z M224.7,8.3
	c-0.3,0-0.5-0.1-0.6-0.1c0,0-0.1,0.1-0.1,0.1s0.1,0.2,0.2,0.4L224.7,8.3z M225.1,5.2c0.5,0,0.6-0.4,0.9-0.4s0.6,0.3,0.7,0.3
	c0.2,0-0.1-0.6,0.5-0.6C227,4.7,227,4.8,227,4.8c0,0.2,0.3,0.2,0.6,0.2c0-0.5,0-0.5,0-0.8c-0.3,0.1-0.5,0.2-0.7,0.2
	c-0.4,0-0.7-0.2-1-0.2c0,0.8-0.8,0.4-1.2,0.8C224.8,5.1,224.9,5.2,225.1,5.2z M226.3,15.7c0,0,0-0.5-0.5-0.5c0,0.5-0.4,0.5-0.4,0.8
	C225.9,16.1,226.3,16.1,226.3,15.7z M225.9,17c0-0.4,0-0.4,0-0.4c-0.2,0.2-0.4-0.4-0.4,0.4H225.9z M226,9.3c0.2,0,0.5-0.3,0.5-0.5
	c0-0.1-0.1-0.1-0.1-0.1c0,0.4-0.5,0-0.5,0.4C225.9,9.2,225.9,9.3,226,9.3z M227.6,10.3c-1.3,0-0.9,0.3-0.9,1.3c-0.4,0-0.4,0-0.8,0.4
	c0.6,0,1.4,0.3,1.4-0.5c0,0,0-0.1-0.1-0.1c-0.3,0,0,0.6-0.6,0.6C226.7,11.1,227.1,10.8,227.6,10.3z M226.7,17.3
	c-0.4,0-0.8,0-0.8-0.4c0,0.4,0,0.8,0,0.8C225.9,17.3,226.7,17.3,226.7,17.3z M227,14.3c0-0.3-0.1-0.5-0.3-0.7c0,0.9-0.4,0.9-0.4,1.2
	C226.8,14.9,227,14.6,227,14.3z M226.7,27.4c-0.2,0-0.3,0.1-0.3,0.1c0,0.1,0.2,0.1,0.4,0.1c0.2,0,0.3-0.1,0.3-0.2
	C227.1,27.4,227.1,27.4,226.7,27.4z M227.1,17.8c-0.4,0-0.5,0.3-0.5,0.4c0,0.1,0.1,0.2,0.1,0.2c0.1,0,0.1,0,0.1-0.1
	C226.7,17.8,227.1,18.3,227.1,17.8z M227.1,8.9c0.3,0,0.6-0.2,0.9-0.2c-0.3-0.2-0.5-0.2-0.7-0.2c-0.3,0-0.4,0.2-0.7,0.2
	C226.9,8.8,227,8.9,227.1,8.9z M227.5,9.8c0-0.1-0.2-0.2-0.4-0.3l-0.4,0.4C227,9.9,227.5,9.9,227.5,9.8z M227,17.2
	c-0.1,0-0.2,0.1-0.3,0.2c0.1-0.1,0.2-0.1,0.2-0.1c0.3,0,0.5,0.3,0.6,0.3c0,0,0.1-0.1,0.1-0.2C227.3,17.3,227.2,17.2,227,17.2z
	 M227.6,25.7c-0.5,0-0.9,0-0.9,0.8C227.6,26.5,227.6,26.1,227.6,25.7z M227.7,16.5c0-0.1-0.3-0.3-0.3-0.4c0-0.1,0.1-0.1,0.2-0.1
	c-0.4,0-0.6,0-0.6,0.2c0,0.1,0.1,0.2,0.2,0.3c0.2-0.1,0.3-0.1,0.3-0.1c0.1,0,0.1,0.1,0.1,0.1c0,0.1-0.1,0.3-0.1,0.3
	c0,0,0.1-0.1,0.2-0.3C227.7,16.6,227.7,16.6,227.7,16.5z M227.5,23.8c0.2,0,0.1-0.4,0.1-0.3v0.2c0-0.3,0.2-0.6,0.2-0.6
	c0.3,0-0.7,0.2-0.7,0.6C227.1,23.6,227.3,23.8,227.5,23.8z M228.3,6.8c0-0.2,0.2-0.5,0.2-0.6c0,0,0-0.1-0.1-0.1
	c-0.2,0-0.5,0.3-0.5,0.6c0,0.2,0.1,0.3,0.5,0.3C228.3,7,228.3,6.9,228.3,6.8z M228,10.3c-0.3,0,0.8-0.6,0.8-0.8
	c-0.4,0-0.4,0.4-0.8,0.4C228,10.2,228,10.3,228,10.3z M228.3,17.1c0-0.2,0.1-0.3,0.1-0.4c0-0.1-0.1-0.2-0.4-0.2c0,0.4,0,0.8,0.4,0.8
	C228.3,17.3,228.3,17.2,228.3,17.1z M228,19.9c0,0,0.8,0,0.8-0.4C228,19.7,228,19.6,228,19.9z M228.2,28.8c-0.1,0-0.2,0.1-0.2,0.2
	c0.3,0,0.1,0.6,0.4,0.6c0.1,0,0.2-0.1,0.4-0.2C228.8,29.1,228.4,28.8,228.2,28.8z M228.8,16.3c0.3,0,0.4-0.3,0.4-0.3s0,0.1,0,0.1
	c0.1-0.1,0.1-0.2,0.1-0.3s-0.1-0.1-0.1-0.1c-0.3,0-0.8,0.4-0.8,0.4C228.6,16.2,228.7,16.3,228.8,16.3z M229.3,13.3
	c-0.2-0.1-0.4-0.1-0.5-0.1c-0.2,0-0.3,0.1-0.3,0.2c0,0.2,0.2,0.4,0.2,0.4c0.1,0,0.1-0.1,0.1-0.1C228.8,13.3,229.3,13.3,229.3,13.3z
	 M229.1,26.7c0-0.2,0.3-0.2,0.3-0.2c0.2-0.1-0.5,0-0.5,0.4c0,0,0.1,0.1,0.4,0.1C229.2,26.8,229.1,26.7,229.1,26.7z M229.3,8.3
	c0,0.6,0.3,0.6,0.4,0.6c0,0,0-0.1,0-0.2C229.6,8.7,229.6,8.3,229.3,8.3z M230.1,17c-0.5,0-0.8,0-0.8,0.4
	C229.6,17.3,230.1,17.3,230.1,17z M230.1,19.9c0-0.4,0-0.9-0.5-0.9c0,0.5,0,0.5-0.4,0.9C229.6,19.9,229.6,19.9,230.1,19.9z
	 M229.6,23.2c-0.1,0.1-0.2,0.1-0.2,0.1c-0.1,0-0.2-0.3-0.2-0.3c0,0.2,0-0.1,0,0.6C229.6,23.7,229.7,23.5,229.6,23.2z M230.4,34
	c0-0.3-0.5-0.6-0.8-0.9c0,0.4,0,1.2,0.5,1.2C230.3,34.3,230.4,34.2,230.4,34z M231,16.1c0-0.1-0.1-0.2-0.2-0.3
	c-0.1,0.1-0.2,0.3-0.2,0.4c0,0.3,0.2,0.6,0.2,0.8C230.8,16.4,231,16.2,231,16.1z M230.9,17.1c-0.1,0-0.1,0.1-0.1,0.1
	c0,0.1,0.2,0.3,0.3,0.3c0,0,0.1,0,0.2-0.1C231.1,17.1,230.9,17.1,230.9,17.1z M231.9,15.3c0-0.1,0-0.1-0.1-0.1
	c0.3,0-0.7,0.1-0.7,0.4c0,0.1,0.1,0.1,0.2,0.2C231.8,15.7,231.9,15.4,231.9,15.3z M231.2,21.6c0,0.1,0,0.2,0.1,0.2
	c0.1,0,0.3-0.2,0.3-0.4c0-0.1-0.1-0.2-0.3-0.2C231.2,21.4,231.2,21.5,231.2,21.6z M232.9,13.9c0-0.1-0.1-0.1-0.4-0.3l-0.5,0.4
	C232.4,14.1,232.9,14.1,232.9,13.9z M234,11.7c-0.1,0-0.2,0.1-0.3,0.3c0,0,0,0.4,0.5,0.4C234.2,12.4,234.2,11.7,234,11.7z M234,25.6
	c0.1,0,0.2-0.1,0.2-0.2c0-0.2-0.1-0.4-0.4-0.5C233.8,25.4,233.9,25.6,234,25.6z M235.6,9c0.3,0,0.6-0.1,0.6-0.3
	c-0.6,0-0.6-0.4-0.8-0.4c-0.1,0-0.2,0.1-0.5,0.4C235,8.9,235.3,9,235.6,9z M236,23.6c0,0-0.1,0-0.2,0c0,0-0.5,0.3-0.5,0.3
	c0,0.1,0,0.1,0.1,0.1C235.4,23.7,236,23.6,236,23.6z M236.3,12.4c-0.5,0-0.8,0-0.8,0.5C235.8,12.8,236.3,12.8,236.3,12.4z
	 M237.1,18.3c-0.4,0-0.8,0-0.8,0.4C236.7,18.7,237.1,18.7,237.1,18.3z M237.2,9.9c0-0.1-0.1-0.2-0.1-0.4c-0.3,0-0.8,0.2-0.8,0.4
	c0,0.1,0.1,0.3,0.4,0.4C236.7,10,237.2,10.2,237.2,9.9z M237.2,8.6c-0.1,0-0.2,0.1-0.2,0.2c0,0.1,0.1,0.2,0.2,0.2
	c0.1,0,0.2-0.1,0.3-0.3C237.4,8.6,237.3,8.6,237.2,8.6z M238.1,15.2c0.2,0,0.3-0.2,0.3-0.5c0-0.1,0-0.2-0.1-0.3
	c0,0.4-0.4,0.4-0.4,0.4C237.9,15.1,238,15.2,238.1,15.2z M238.3,5c0,0.3,0.4,0.6,0.7,0.6c0.1,0,0.2-0.1,0.2-0.2
	C238.7,5.4,238.7,5,238.3,5z M239.3,6.4c0-0.2,0.2-0.4,0.2-0.6c0-0.1-0.1-0.2-0.3-0.2c0,0.4,0,1,0.3,1c0.1,0,0.1,0,0.2-0.1
	C239.4,6.6,239.3,6.6,239.3,6.4z M240.9,4.1c-0.5,0-0.5,0.4-0.5,0.4C240.9,4.5,240.9,4.5,240.9,4.1z M242.9,3.7c0,0,0-0.4-0.5-0.4
	c0,0.4,0,0.4,0,0.4S242.4,3.7,242.9,3.7z M243.3,5.4c0-0.4,0-0.9-0.4-1.2c0,0.4-0.5,0.4-0.5,0.8C242.9,5.4,242.9,5.4,243.3,5.4z
	 M242.6,11.2c0.2,0,0.2-0.2,0.2-0.3c0-0.3-0.2-0.6-0.4-0.6c0,0.8,0,0.5,0,0.8C242.5,11.2,242.6,11.2,242.6,11.2z"/>
<path fill="#EDEDED" d="M286.9,2.5c0,0.5-0.1,1.1-0.3,1.7c0,0.3,0.2,0.4,0.2,0.6c0,0.3-0.2-0.2-0.2,0.7c0,0.7,0.2,1.7,0.2,2.1
	c0,0.4-0.2,0.8-0.2,1.1c0,1.5,0.2,1.1,0.2,1.5c0,2.1-0.5,1.8-1.7,1.8c-1.6,0-3.6-0.3-5.5-0.3c-0.8,0-1.5,0.1-2.2,0.2
	c-0.6,0-3.1-0.4-3.6,0.4c-0.3,0-0.6-0.2-1-0.2c-0.2,0-0.4,0.1-0.7,0.2c0.1,0,0.2-0.1,0.2-0.1c0-0.1-0.2-0.3-0.2-0.3s-0.4,0.5-0.4,1
	c0,0.3,0.1,0.5,0.4,0.6c-0.2,0.2-0.2,0.3-0.2,0.3c0,0.2,0.3,0.2,0.6,0.2c2.1-0.5,6.1-0.5,8.9-0.5c0.4,0.5,0.8,0.5,0.8,0.5
	c1.1,0,2-0.2,2.8-0.2c0.4,0,0.8,0.1,1.2,0.2c0,2.6,0.1,5.6,0.1,7.6c0,1.7-1.1,2.2-2.2,2.2c-0.4,0-0.7-0.1-1.1-0.6
	c-0.6,0-1,0.8-2,0.4c-0.2-0.2-0.3-0.2-0.3-0.2c-0.2,0-0.2,0.2-0.2,0.2c-0.7,0-1.8,0.3-2-0.4c-0.5,0-0.5,0.4-0.8,0.4
	c-0.8,0-1.9-0.2-3.1-0.2c-0.8,0-3,0.1-3,0.6c0,0.5-0.2,1.8,0.4,1.8c2.9,0,7.3-0.2,10.5-0.2c0,0,0.2,0.2,0.4,0.2
	c0.1,0,0.2-0.4,0.9-0.4c0.7,0,1.8,0.2,2.4,0.2c0,0.8,0.5,2,0.5,3.2c-0.3,0.3-0.4,0.4-0.4,0.5c0,0.2,0.1,0.4,0.4,0.7
	c0,0.8-0.5,2-0.5,2.8c0,0.8,0,2,0,2.9c-0.8,0-1.6,0.2-2.5,0.2c-0.5,0-0.9-0.1-1.5-0.2c-1.3,0-4.4,0.2-7.3,0.2c-3.4,0-7-0.2-10.5-0.2
	c-1.1,0-2.3,0.2-3.5,0.2c-0.6,0-1.2-0.1-1.7-0.2c-0.4-0.8-0.5-1.8-0.5-2.8c0-1.2,0.1-2.2,0.1-3.7c0-0.2,0.2-1.3-0.4-1.6
	c0-1.9,0.5-2.5,0.5-3.6c0-0.3,0-0.6-0.2-0.8c-0.1-1.6,0.2-2.8,0.2-7.6c0-0.4,0-0.9-0.2-1.3c0-5.2,0-6.1,0-9.6c0-0.9-0.1-3.8,0.8-3.8
	c0.3,0,0.6,0.2,0.8,0.2c0.4,0,0.8-0.5,1.2-0.5c0.4,0,0.8,0.5,1.2,0.5V0.5c4.7,0,9.3,0.2,13.9,0.2c1.2,0,2.4-0.1,3.5-0.2
	c3.3,0,3.6-0.1,4.8-0.1c0.6,0,1.2,0.1,1.6,0.5C286.8,1.4,286.9,1.9,286.9,2.5 M260.9,17c0.1,0.1-0.1,1.7-0.4,1.6
	c0,0.5,0.4,0.5,0.4,0.5c0,1-0.1,2.6-0.1,3.8c0,0.2,0.1,0.4,0.5,0.6c-0.1-0.2-0.2-0.5-0.2-0.7c0-0.6,0.3-1.1,0.6-1.4
	c-0.4,0-0.4-0.4-0.4-0.4c0-0.9-0.3-0.9-0.3-1.2c0-0.2,0.1-0.4,0.3-0.8c0-1.7-0.3-3.8-0.4-4.2c0.1,0.3-0.4,1.8-0.4,1.8
	S260.9,16.7,260.9,17z M260.5,28.2c-0.1,0-0.1-0.1-0.1-0.2c0,0.4,0.4,0.8,0.4,0.8c0,0.3-0.4,0.6-0.4,0.8c0,0.2,0.1,0.3,0.4,0.4
	c0-0.4,0.4-0.4,0.4-0.8c0-0.6-0.2-0.7-0.2-0.9c0-0.1,0.1-0.2,0.2-0.3c0,0,0-2.1-0.4-2.1c-0.1,0-0.3,1.4-0.3,1.6
	c0,0.2,0.1,0.4,0.2,0.5C260.9,28,260.7,28.2,260.5,28.2z M260.9,33c0-0.8,0.1-2.1-0.4-2.6c0,1.2,0.4,1.6,0.4,2.4V33z M261.2,24.7
	c0-0.5-0.1-1-0.3-1.2c0,0.3-0.2,1.1-0.2,1.7c0,0.3,0.1,0.6,0.2,0.7C261.1,25.8,261.2,25.3,261.2,24.7z M260.9,7.4c0,0,0,0.9,0.3,0.9
	c1,0,0.2-2.1,1-2.9c0-0.6-0.2-0.7-0.2-0.9c0-0.4,0.2,0.2,0.2-1.1c-0.6,0-0.6,1.3-0.6,1.5c0,0.2,0.1,0.5,0.2,0.9
	C261.2,5.8,260.9,6.9,260.9,7.4z M261,9.5c0.3,0,0.3-0.9,0.3-0.9c0,0.5-0.4,0.8-0.4,0.8C260.9,9.5,261,9.5,261,9.5z M261.8,1.2
	c-0.1,0-0.1,0.1-0.2,0.1l0.4,0.5C262.1,1.8,262.1,1.2,261.8,1.2z M262.4,11.9c0.2,0.1,0.4,0.2,0.5,0.2c0.2,0,0.3-0.1,0.3-0.1
	c0,0-0.1-0.1-0.3-0.1C262.9,11.9,262.9,11.9,262.4,11.9z M269.7,16.3c0,0,0,0.5,0.2,0.5c0.1,0,0.2,0,0.3-0.1
	C270.2,16.3,270.2,16.3,269.7,16.3z M270.1,24.7c0,0.2,0.1,0.3,0.1,0.3c0.1,0,0.3-0.2,0.3-0.4c0-0.1-0.1-0.3-0.3-0.4
	C270.1,24.5,270.1,24.6,270.1,24.7z M284.6,17.7c0.2,0,0.4-0.1,0.4-0.3c-0.3-0.2-0.5-0.4-0.6-0.4c-0.2,0-0.2,0.2-0.2,0.4
	C284.2,17.7,284.4,17.7,284.6,17.7z M285.2,8.9c0-0.1-0.1-0.2-0.2-0.4c0,0.5-0.5,0.5-0.5,0.8C284.9,9.4,285.2,9.2,285.2,8.9z
	 M285.4,10.6c-0.4,0-0.8,0-0.8,0.5C285,11,285.4,11,285.4,10.6z"/>
<path fill="#EDEDED" d="M323.8,22.4c0-0.8,2.5,2.2,3.3,2.2c0,0.8,0.7,0.1,1.2,1.2c0.3-0.2,0.6-0.2,0.8-0.2c0.6,0,1.1,0.2,1.6,0.2
	c0,1.9,0.1,1.7,0.1,7.1c0,1.2,0,2.8-2.4,2.8c-1.8,0-1.5-0.2-5.4-0.2c-0.1,0-1.3,0.3-2-0.4c-1.3,0-1.2,0.5-4-2c0-0.5-1.2-1.4-1.6-2
	c0-0.8-1.6-2-2.5-2.4c-0.7-0.8-1.5-1.2-3.2-1.2c-0.4,0.2-0.5,0.7-0.5,1.3c0,0.7,0.1,1.5,0.1,2.3c0,1.2,0,2.9-0.4,3.7
	c-0.7,0.6-2.2,0.5-3.4,0.5c-2.7,0-2.8-0.2-7.5-0.2c-1.9,0-1.6-2.1-1.6-3.2c0-2.5,0.2-4.9,0.2-7.8c0-2-0.2-4.2-0.2-6.3
	c-0.1,0.1-0.1-1.5,0.5-1.2c0-0.4-0.5-0.4-0.5-0.8c0-0.4,0.5-0.4,0.5-0.8c0,0-0.5-0.4-0.5-0.8c0-1.8,0-4.2,0-6.5
	c0-0.4,0.5-0.4,0.5-0.8c0-0.5-0.5-0.8-0.5-1.6c0,0,0.5-0.4,0.5-0.8c0-0.4-0.2-1.1-0.2-1.7c0-1.9,0.9-2.2,3.2-2.2
	c1.1,0,2.4,0.1,3.6,0.1c0.9,0,1.7-0.1,2.6-0.2c4.9,0,6.6,0.3,11,0.3c2.1,0,4.5,0.2,5,0.2c0.5,0,0.5,0.4,0.8,0.4
	c0.6,0.6,1.4,0.4,1.4,0.7c0,0.5,1.6,0.3,2.6,1.8c0,1.1,1.2,1,1.2,1.6c0,1.1,1.6,1.9,1.6,4c0.1,0.2,0.4,1.9,0.4,3.6
	c0-0.2,0-0.2-0.1-0.2c-0.5,0,0.3,1.9-1.1,3.4c0,0.4,0,1.2-0.4,1.6c-0.3-0.6-0.2,0.6-3.2,3.6c0,0-0.4,0-0.8,0c0,0,0,0.8-0.8,0.8
	C323.8,22.3,323.8,22.4,323.8,22.4 M299.5,27.8c0,0.1-0.2,0.1-0.2,0.1c0,0.3,0.2,0.4,0.2,0.4c0,0-0.1,0-0.2,0
	c-0.5,0-0.6-0.1-0.6-0.3c0-0.1,0.1-0.2,0.1-0.3c0-0.1-0.1-0.2-0.3-0.2c0,0.2-0.3,1.5,0.5,1.6c-0.5,0.5-0.6,1-0.6,1.5
	c0,0.5,0.1,0.9,0.1,1.3c0,0.4,0.5,0,0.8,0.4c-0.3,0-0.3,0.2-0.5,0.2c-0.1,0-0.2-0.1-0.3-0.2c-0.1,0.3-0.2,0.5-0.2,0.7
	c0,0.4,0.2,0.7,0.2,1.3c0.5,0,1.3,0,1.3-0.4c-0.5,0-0.5,0-0.5,0c0.2,0,0.2-0.1,0.2-0.2c0-0.3-0.2-0.8-0.2-1c0.2,0.2,0.8-0.7,0.8-0.9
	c0-0.2-0.1-0.4-0.1-0.5c0-0.9,0.1-0.3,0.1-1.1c0,0-0.4,0-0.4-0.4c0.4,0,0.4-1.6,0.4-2c0,0-0.4,0-0.4-0.4c0.1,0.1,0.2,0.2,0.2,0.2
	c0.2,0,0.2-0.3,0.2-0.6c0.3,0,0.6,0,0.6-0.1c0-0.1-0.1-0.2-0.2-0.3c-0.8,0-1.2,0.4-1.2,0.8C299.5,27.7,299.5,27.8,299.5,27.8z
	 M298.9,19c-0.1-0.1-0.2-0.1-0.2-0.1c-0.2,0-0.3,0.2-0.3,0.4c0,0.1,0.1,0.2,0.3,0.2c0.1,0,0.2,0,0.3-0.1
	C298.9,19.5,298.9,19.5,298.9,19z M298.7,23.5c0-0.1,0.2-0.2,0.2-0.5c-0.1,0-0.2-0.1-0.2-0.1c-0.2,0-0.3,0.3-0.3,0.5
	c0,0.2,0.1,0.4,0.2,0.4c0.1,0,0.2-0.1,0.3-0.4C298.8,23.5,298.7,23.5,298.7,23.5z M299.3,15.8c-0.5,0-0.7,0.3-0.7,0.5
	c0,0.2,0.1,0.3,0.3,0.3L299.3,15.8z M299.3,7.1c0.2,0,0.2-0.1,0.2-0.2c0-0.2-0.1-0.5-0.1-0.7c-0.4,0-0.4,0.4-0.4,0.8
	C299.1,7.1,299.2,7.1,299.3,7.1z M299.7,14.7c0.2,0,0.2-0.1,0.2-0.2c0-0.2-0.1-0.5-0.1-0.7c-0.5,0,0,0.8-0.5,0.8
	C299.5,14.7,299.6,14.7,299.7,14.7z M302.5,16.3c-0.3,0-0.4,0.1-0.4,0.2c0,0.1,0.2,0.3,0.2,0.4c0,0.2-0.3,0.3-0.3,0.6
	c0,0.5,0.5,1.2,0.5,1.2c-0.7,0.5-0.8,0.5-0.8,1.2c1.1,0,1-0.9,1-1.7c0-0.3-0.1-0.5-0.2-0.6c0.4,0,0.5-0.2,0.5-0.5
	c0-0.2-0.1-0.4-0.1-0.4c0-0.4,0.4,0,0.8-0.4c-0.6,0-0.2-0.3-0.8-0.4c0.1-0.1,0.1-0.1,0.1-0.2c0-0.3-0.4-0.4-0.7-0.4
	c-0.1,0-0.2,0.1-0.2,0.2c0.1,0,0.2,0.1,0.2,0.1c0,0.1-0.2,0.3-0.2,0.3C302.5,15.8,302.5,15.8,302.5,16.3z M302.2,5
	c0,0.4,0,0.8,0.4,0.8C302.5,5.5,302.7,5,302.2,5z M303,4.5c-0.2,0-0.2-0.1-0.2-0.1c0-0.2,0.2-0.4,0.2-0.7c-0.5,0-0.5,0.4-0.5,0.8
	C302.5,4.5,302.5,4.5,303,4.5z M302.8,14c0,0.1,0.2,0.3,0.2,0.6c0.2-0.2,0.8-0.8,0.8-1.2c0-0.2-0.2-0.4-0.8-0.4
	c0,0.4,0.4,0.4,0.4,0.4C303.3,13.8,302.8,13.8,302.8,14z M303.5,22.1c0-0.1-0.1-0.2-0.2-0.2c0,0.4-0.4,0-0.4,0.8
	C303.2,22.7,303.5,22.3,303.5,22.1z M303.5,22.5c-0.1,0-0.1,0.1-0.2,0.2c0,0,0.3,0.5,0.4,0.5c0,0,0.1-0.1,0.1-0.2
	C303.8,23.1,303.8,22.5,303.5,22.5z M303.3,25.5c0.4,0,0,0.8,0.4,0.8c0-0.4,0.8,0,0.8-0.8c-0.7,0-0.2-0.9-0.6-0.9
	c-0.1,0-0.2,0.1-0.3,0.1c0,0,0,0.4,0.4,0.4C303.8,25.1,303.3,25.5,303.3,25.5z M303.8,23.5c0,0.4,0,0.8,0.4,0.8
	C304.2,23.9,304.2,23.5,303.8,23.5z M304.2,29.1c-0.2,0.4-0.3,0.7-0.3,1c0,0.3,0.1,0.6,0.3,1c0,0.3-0.2,0.9-0.2,1.4
	c0,0.3,0.1,0.5,0.2,0.6c0-1.4,0.2-0.8,0.2-1.1c0-0.1-0.2-0.1-0.2-0.1c0.7-0.2,0.3-1.6,0.8-2c0-0.4-0.4,0-0.4-0.8c0.3,0,0.4,0,0.4,0
	c0-0.1-0.4-0.2-0.4-0.4c0.2,0,0.3-0.2,0.3-0.5c0-0.4-0.1-0.7-0.7-0.7c0-0.5,0.4-0.5,0.4-0.5c0-0.1-0.1-0.2-0.1-0.2
	c-0.1,0-0.3,0.2-0.3,0.2c-0.4-0.4,0-0.8-0.4-0.8c0,1.3,0,1.3,0,2.5C303.8,28.7,304.2,28.7,304.2,29.1z M304.2,6.5
	c-0.1,0.2-0.2,0.3-0.2,0.4c0,0.3,0.3,0.5,0.6,0.5C304.6,7,304.6,6.5,304.2,6.5z M307.2,15.5c0.2,0,0.4-0.3,0.4-0.4
	c0-0.2-0.3-0.3-0.5-0.6c0,0.4-0.6,0.4-0.6,0.4s0.1,0,0.1,0C306.9,15,307,15.5,307.2,15.5z M307.8,5.4c0-0.3,0.2-0.4,0.2-0.5
	c0-0.1,0-0.2-0.2-0.3h0.4c-0.4,0-0.9,0-0.9,0.3c0,0.1,0.1,0.1,0.1,0.2L307.8,5.4z M307.4,5.4c-0.1,0.1-0.1,0.1-0.1,0.2
	c0,0.2,0.4,0.4,0.6,0.4c0.2,0,0.3-0.1,0.3-0.2C307.8,5.7,307.8,5.4,307.4,5.4z M308,3.7c0.3,0,0.6-0.4,0.6-0.4
	c-0.2-0.1-0.3-0.2-0.3-0.2c-0.2,0-0.3,0.2-0.5,0.2C307.8,3.6,307.9,3.7,308,3.7z M308.4,4.2c0.1,0,0.1-0.1,0.1-0.1
	c0-0.2-0.1-0.4-0.3-0.4v0.4C308.3,4.2,308.4,4.2,308.4,4.2z M316.3,11.8c0-0.8-5.1-0.8-6.5-0.8c-0.4,1.6-0.4,2.4-0.4,4
	c2.4,0,5.2,0,6.9-0.4c0-0.8,0.4-1.2,0.4-1.6C316.6,12.7,315.9,12,316.3,11.8z M320.6,25.9c0,0.1,0.1,0.2,0.1,0.2
	c0.1,0,0.3-0.2,0.3-0.4c0-0.1-0.1-0.2-0.3-0.2C320.6,25.7,320.6,25.8,320.6,25.9z M320.8,34.5c0.1,0,0.2-0.2,0.2-0.3
	c0-0.3-0.1-0.6-0.3-0.6c0,0.5,0,0.5,0,0.8C320.7,34.4,320.8,34.5,320.8,34.5z M321.9,28c0,0.2-0.1,0.3-0.1,0.5
	c0,0.1,0.1,0.2,0.2,0.3c-0.1,0-0.2,0.1-0.2,0.2c0,0.2,0.1,0.4,0.1,0.7c0,0.2-0.1,0.4-0.4,0.4c0.8,1.6,0,3.2,0.8,3.2
	c0-1.2-0.4-2-0.4-2.9c0-0.8,0.4-0.4,0.4-0.8c0-1.1,0.1-0.7,0.1-2.7c0-0.4-0.1-0.8-0.5-0.9c-0.1,0.2-0.2,0.4-0.2,0.5
	c0,0.3,0.1,0.5,0.1,0.6c0,0.2-0.1,0.4-0.4,0.5C321.7,27.7,321.9,27.9,321.9,28z M321.9,16.3c-0.2,0.3-0.2,0.5-0.2,0.7
	c0,2.5,0.5,3.9,0.5,5.3c0,0.4-0.1,0.7-0.3,0.8c0.2,0.1,0.3,0.2,0.4,0.2c0.1,0,0.1-0.1,0.1-0.2c0-0.2-0.1-0.6-0.1-0.8
	c0-0.4,0.5-0.8,0.5-0.8c-0.5-0.8-0.5-2-0.5-2.5c0-1.2,0-2.4,0-2.8c-0.4-0.4,0-1.2-0.4-1.6c-0.2,0.2-0.2,0.3-0.2,0.4
	c0,0.3,0.2,0.6,0.2,0.8C321.9,15.8,321.9,15.8,321.9,16.3z M322.1,11.6c-0.1,0-0.1,0.1-0.2,0.3c0,0,0,0.4,0.4,0.4
	C322.3,12.2,322.3,11.6,322.1,11.6z M322.4,24.2c0-0.2-0.1-0.4-0.5-0.4c0.1,0.2,0.1,0.4,0.1,0.5c0,0.4-0.1,0.7-0.1,1
	c0,0.2,0.1,0.4,0.4,0.6C322.3,25.3,322.4,24.9,322.4,24.2z M322.3,7c0,0-0.3,0.5-0.3,0.9c0,0.2,0.1,0.4,0.4,0.4c0.8,0,0-0.5,0.7-1.2
	c0-0.5,0-1.6-0.4-1.6c0,0.4-0.5,0.4-0.5,1.2C322.3,6.5,322.3,6.5,322.3,7z M322.4,9.9c0.1,0,0.2-0.3,0.2-0.5c0-0.4-0.2-0.8-0.4-0.8
	c0,0.6-0.2,0.6-0.2,0.7c0,0.1,0.1,0.2,0.2,0.5C322.3,9.8,322.4,9.9,322.4,9.9z M323,4.7c0-0.3,0.1-0.7,0.1-0.9
	c0-0.3-0.1-0.4-0.4-0.4c0,0.6-0.2,0.9-0.2,1.3c0,0.2,0.1,0.5,0.2,0.7c0.2,0,0.3-0.1,0.3-0.2c0-0.2-0.2-0.4-0.2-0.5
	c0-0.1,0.1-0.2,0.3-0.2c0,0.4,0,0.4,0,0.4C323,4.9,323,4.8,323,4.7z M324.1,12.8c0.1,0,0.2-0.2,0.2-0.3c0-0.1-0.1-0.3-0.4-0.3
	C323.9,12.6,324,12.8,324.1,12.8z"/>
<polyline fill="#EDEDED" points="357.7,35.5 357.7,0.5 359.3,0.5 359.3,33.9 380.8,33.9 380.8,35.5 357.7,35.5 "/>
<path fill="#EDEDED" d="M460.5,26.4c0,1.2-0.2,2.4-0.7,3.5c-0.5,1.1-1.1,2.1-1.9,2.9c-0.8,0.8-1.8,1.5-2.9,1.9
	c-1.1,0.5-2.3,0.7-3.5,0.7h-16.3v-35H451c1.2,0,2.3,0.3,3.3,0.8c1,0.5,1.8,1.2,2.5,2c0.7,0.8,1.2,1.8,1.6,2.9
	c0.4,1.1,0.6,2.1,0.6,3.2c0,1.8-0.5,3.4-1.4,4.9c-0.9,1.5-2.1,2.6-3.7,3.3c1,0.3,1.9,0.7,2.7,1.3c0.8,0.6,1.5,1.3,2.1,2
	c0.6,0.8,1,1.6,1.3,2.6C460.3,24.4,460.5,25.4,460.5,26.4 M436.8,2.1v15h13.5c1,0,1.9-0.2,2.8-0.6c0.8-0.4,1.6-1,2.2-1.7
	c0.6-0.7,1.1-1.5,1.5-2.4c0.3-0.9,0.5-1.8,0.5-2.8c0-1-0.2-1.9-0.5-2.8c-0.3-0.9-0.8-1.7-1.4-2.4c-0.6-0.7-1.3-1.2-2.1-1.7
	c-0.8-0.4-1.7-0.6-2.7-0.6H436.8z M458.8,26.3c0-1-0.2-1.9-0.5-2.9c-0.3-0.9-0.8-1.8-1.5-2.5c-0.6-0.7-1.4-1.3-2.2-1.7
	c-0.9-0.4-1.8-0.6-2.8-0.6h-14.9v15.3h14.6c1,0,2-0.2,2.9-0.6c0.9-0.4,1.7-1,2.3-1.7c0.7-0.7,1.2-1.5,1.6-2.5
	C458.6,28.1,458.8,27.2,458.8,26.3z"/>
<path fill="#EDEDED" d="M495.5,5.7c-1.2-1.4-2.6-2.4-4.2-3c-1.5-0.6-3.3-0.9-5.4-0.9c-3.7,0-6.5,0.7-8.1,2.1
	c-1.7,1.4-2.5,3.3-2.5,5.7c0,1.2,0.2,2.2,0.6,3c0.4,0.8,1.1,1.5,1.9,2c0.9,0.6,2,1,3.3,1.4c1.3,0.4,3,0.8,4.8,1.2
	c1.9,0.4,3.6,0.8,5.2,1.3c1.5,0.5,2.9,1,3.9,1.7c1.1,0.7,1.9,1.6,2.5,2.6c0.6,1.1,0.9,2.3,0.9,3.9c0,1.5-0.3,2.8-0.9,3.9
	c-0.6,1.1-1.4,2.1-2.5,2.8c-1.1,0.8-2.4,1.3-3.9,1.7c-1.5,0.4-3.2,0.6-5.1,0.6c-2.8,0-5.3-0.4-7.5-1.3c-2.2-0.9-4.3-2.2-6.2-4l1-1.2
	c1.6,1.7,3.5,2.9,5.6,3.8c2.1,0.9,4.5,1.3,7.1,1.3c3.3,0,5.9-0.6,7.8-1.8c1.9-1.2,2.8-3,2.8-5.5c0-1.2-0.2-2.3-0.7-3.2
	c-0.5-0.9-1.2-1.6-2.1-2.2c-0.9-0.6-2.1-1.1-3.5-1.6c-1.4-0.4-3.1-0.9-5-1.3c-1.9-0.4-3.6-0.8-5.1-1.2c-1.5-0.4-2.7-1-3.7-1.6
	c-1-0.7-1.8-1.5-2.3-2.4c-0.5-1-0.8-2.2-0.8-3.6c0-1.5,0.3-2.9,0.9-4.1c0.6-1.2,1.4-2.2,2.5-3c1.1-0.8,2.4-1.4,3.9-1.8
	s3.2-0.6,5.1-0.6c2.3,0,4.2,0.3,5.9,1c1.7,0.7,3.2,1.7,4.7,3.2L495.5,5.7"/>
<polyline fill="#EDEDED" points="406.9,0.5 405.5,0.5 390.4,35.5 392.2,35.5 397.4,23.4 397.9,21.9 406.2,2.7 414.4,21.9 
	414.9,23.4 420.1,35.5 422,35.5 406.9,0.5 "/>
</svg>
